<svg width="204" height="130" xmlns="http://www.w3.org/2000/svg" xmlns:xlink="http://www.w3.org/1999/xlink" overflow="hidden"><g transform="translate(-91 -347)"><path d="M92 462C92 462 182.869 410.568 293 447.116 293 447.116 194.007 423.257 92 462" fill="#7F7F7F" fill-rule="evenodd"/><path d="M173.271 436.234C191.124 433.541 209.133 432.598 226.807 433.442 229.629 433.577 232.446 433.765 235.257 433.989 259.434 413.214 256.926 387 256.926 387 240.163 413.959 193.6 431.223 156 428.67 160.921 433.119 165.109 435.271 168.512 437 170.099 436.734 171.685 436.474 173.271 436.234" fill="#7F7F7F" fill-rule="evenodd"/><path d="M190 424C201.018 408.711 210.719 375.598 191.496 350 191.496 350 233.664 359.955 232.992 405.646 220.089 389.316 191.034 423.761 190 424" fill="#7F7F7F" fill-rule="evenodd"/><path d="M172 423C177.373 412.163 187.968 384.126 172.903 370 172.903 370 197.461 384.137 202 413.085 188.503 403.52 177.547 416.58 172 423" fill="#7F7F7F" fill-rule="evenodd"/><path d="M172.1 434.234C189.776 431.541 207.607 430.598 225.106 431.442 227.9 431.577 230.689 431.765 233.472 431.989 257.41 411.214 254.927 385 254.927 385 238.329 411.959 192.228 429.223 155 426.67 159.872 431.119 164.019 433.271 167.388 435 168.959 434.734 170.53 434.474 172.1 434.234" fill="#A1252D" fill-rule="evenodd"/><path d="M93 460C93 460 183.869 408.568 294 445.116 294 445.116 195.007 421.257 93 460" fill="#B24243" fill-rule="evenodd"/><path d="M172 421C177.373 410.163 187.968 382.126 172.903 368 172.903 368 197.461 382.137 202 411.085 188.503 401.52 177.547 414.58 172 421" fill="#B19013" fill-rule="evenodd"/><path d="M190 422C201.018 406.711 210.719 373.598 191.496 348 191.496 348 233.664 357.955 232.992 403.646 220.089 387.316 191.034 421.761 190 422" fill="#B19013" fill-rule="evenodd"/><path d="M130.755 470.131C130.429 470.131 130.104 470.147 129.768 470.173 129.432 470.189 129.122 470.209 128.844 470.235 129.138 469.64 129.369 468.993 129.537 468.293 129.705 467.599 129.831 466.821 129.915 465.954 129.925 465.719 129.936 465.26 129.936 464.576 129.946 463.897 130.004 462.937 130.104 461.694L131.742 461.381 129.663 459.982C129.689 458.394 129.726 457.491 129.768 457.267 130.03 455.821 130.529 455.032 131.259 454.907L131.637 454.823 130.671 454.051C129.059 454.259 127.374 454.239 125.61 453.988L125.967 453.925C126.413 453.842 127.09 453.769 128.004 453.696L128.13 453.612C127.878 453.544 127.531 453.461 127.101 453.362 126.681 453.252 126.182 453.127 125.61 452.986L126.009 452.839C130.697 452.129 134.325 451.539 136.887 451.064 137.359 450.97 137.916 450.845 138.546 450.688 139.186 450.521 139.911 450.302 140.709 450.02L141.654 450.271 142.053 450.939C141.197 451.231 140.488 451.461 139.932 451.628 139.37 451.785 139.018 451.894 138.882 451.962 137.296 452.521 136.54 453.038 136.614 453.508L135.165 455.262 137.412 454.301C136.782 454.693 135.879 455.335 134.703 456.223L134.661 457.35 135.501 456.16 136.467 456.431 135.921 468.774 136.089 469.421 139.197 468.627 138.924 469.63C139.26 469.452 139.785 469.243 140.499 469.003 141.223 468.768 142.105 468.492 143.145 468.168 144.305 467.792 145.287 467.474 146.085 467.207 146.883 466.946 147.476 466.722 147.87 466.539 149.408 465.871 150.201 465.192 150.243 464.493 150.243 464.174 149.954 463.501 149.382 462.467L151.545 462.989C152.579 464.148 153.067 465.135 153.015 465.954 152.999 466.748 152.852 467.562 152.574 468.398L151.041 468.732C150.663 468.831 150.264 468.93 149.844 469.024 149.434 469.108 148.993 469.191 148.521 469.275 147.817 469.416 146.946 469.567 145.896 469.734 144.846 469.901 143.628 470.089 142.242 470.298 140.882 470.497 139.685 470.669 138.651 470.82 137.611 470.977 136.766 471.107 136.11 471.217 135.842 471.274 135.48 471.337 135.018 471.405 134.556 471.478 134.083 471.562 133.611 471.656 133.133 471.739 132.666 471.817 132.204 471.885 131.752 471.943 131.411 472 131.175 472.052 127.001 472.836 123.951 474.151 122.019 476.02 122.076 475.321 122.26 474.715 122.564 474.203 122.859 473.692 123.321 473.232 123.951 472.825 124.523 472.439 125.725 471.948 127.563 471.363 128.529 471.029 129.264 470.768 129.768 470.57 130.282 470.361 130.613 470.215 130.755 470.131Z" fill="#A1252D" fill-rule="evenodd"/><path d="M162.337 458.698C162.69 458.739 163.136 458.734 163.668 458.677 163.955 458.651 164.457 458.554 165.184 458.389 165.906 458.215 166.884 457.958 168.113 457.629 167.918 457.167 167.673 456.499 167.376 455.636 167.089 454.763 166.71 453.663 166.249 452.348ZM149.024 471.828C150.918 471.237 152.454 470.061 153.632 468.293 153.642 468.268 154.375 466.773 155.824 463.814L158.323 462.458 156.623 462.088 158.876 458.451 160.637 458.184 160.371 456.848C160.494 456.699 160.683 456.376 160.944 455.883 161.216 455.379 161.6 454.706 162.091 453.869 162.429 453.293 162.788 452.775 163.156 452.307 163.525 451.845 163.945 451.424 164.426 451.054L167.56 450.437 164.017 450.006C164.631 449.585 165.184 449.014 165.676 448.3 166.167 447.591 166.556 446.872 166.843 446.143L168.564 447.766 168.092 446.019C169.076 446.061 170.945 448.917 173.705 454.588 176.582 460.521 178.262 463.588 178.743 463.793 179.398 464.112 180.489 464.446 182.02 464.8L181.979 465.211C181.759 465.242 181.488 465.268 181.16 465.293 180.832 465.309 180.484 465.329 180.115 465.355 179.757 465.386 179.409 465.412 179.071 465.437 178.743 465.453 178.482 465.468 178.292 465.478L177.596 465.684 177.842 466.033 177.678 466.136C175.41 466.249 173.423 466.357 171.718 466.465 170.023 466.562 168.574 466.67 167.376 466.793L166.106 466.937 167.314 465.91 171.165 464.657 171.452 464.287C171.354 463.989 171.236 463.68 171.103 463.362 170.98 463.049 170.837 462.725 170.673 462.396L173.643 460.362 169.956 461.102 169.137 459.869C168.246 459.828 167.442 459.817 166.72 459.828 165.993 459.828 165.358 459.864 164.815 459.93 164.227 459.987 163.617 460.085 162.992 460.218 162.378 460.357 161.764 460.526 161.149 460.732L158.609 464.8C157.734 466.156 157.042 467.502 156.541 468.828L156.807 469.403C156.858 469.413 156.981 469.413 157.176 469.403 157.432 469.372 157.795 469.28 158.261 469.115 158.737 468.961 159.101 468.874 159.347 468.848 159.726 468.807 160.166 468.92 160.657 469.198L160.289 469.588 160.125 469.609C159.521 469.66 158.589 469.896 157.319 470.307 156.689 470.513 156.141 470.662 155.68 470.759 155.23 470.867 154.82 470.929 154.451 470.944 154.943 471.052 155.296 471.201 155.517 471.396 154.805 471.602 153.653 471.889 152.055 472.259 151.261 472.465 150.591 472.619 150.048 472.732 149.505 472.855 149.075 472.922 148.758 472.937L148.02 473.02Z" fill="#A1252D" fill-rule="evenodd"/><path d="M182.375 445.946C183.093 445.823 183.904 445.751 184.81 445.72 185.543 445.709 186.724 445.73 188.347 445.782 189.897 445.823 191.083 445.833 191.905 445.802 192.154 445.802 192.487 445.776 192.904 445.72 193.33 445.668 193.777 445.596 194.235 445.514 194.703 445.421 195.161 445.344 195.608 445.287 196.051 445.236 196.399 445.205 196.649 445.205L196.836 445.225C196.805 445.431 196.03 445.812 194.506 446.358 193.725 446.662 193.101 446.904 192.633 447.08 192.175 447.26 191.874 447.399 191.738 447.492 192.206 448.125 192.8 448.893 193.507 449.799 194.214 450.695 195.031 451.757 195.962 452.993L195.941 453.075 195.026 454.456 195.067 454.538C195.442 454.322 195.941 454.121 196.566 453.941 196.909 453.982 197.242 454.301 197.564 454.888 198.646 454.054 199.583 453.302 200.373 452.642 201.174 451.983 201.83 451.448 202.329 451.035 204.087 449.47 205.45 448.099 206.407 446.915L207.885 446.709C207.052 446.214 205.955 445.709 204.597 445.184L204.556 445.225C207.037 445.256 209.123 445.246 210.818 445.205 211.469 445.179 212.056 445.153 212.587 445.122 213.112 445.096 213.591 445.06 214.023 445.019L214.023 445.122C210.86 446.358 205.929 450.165 199.229 456.537 199.088 456.619 198.859 457.526 198.542 459.256 198.542 459.23 198.001 462.326 196.919 468.548L197.543 469.187C197.96 469.187 198.459 469.197 199.042 469.228 199.624 469.254 200.28 469.316 201.018 469.414L201.788 470.279C195.738 470.495 190.011 471.412 184.601 473.019L186.516 471.659 184.893 471.536C185.626 471.289 186.375 471.021 187.14 470.732 187.915 470.444 188.721 470.104 189.554 469.723 190.287 468.95 190.844 467.601 191.218 465.664 191.369 464.896 191.395 464.335 191.301 463.974 191.853 463.511 192.706 463.088 193.861 462.718 193.777 462.635 193.736 462.609 193.736 462.635 193.736 462.609 193.762 462.594 193.819 462.594 193.663 462.486 193.221 462.383 192.487 462.285 191.832 462.218 191.457 462.058 191.364 461.811 191.53 461.523 191.655 461.229 191.738 460.925 191.832 460.611 191.91 460.297 191.967 459.977 192.186 458.906 192.03 457.989 191.489 457.216 191.348 457.01 191.156 456.701 190.906 456.289 190.667 455.877 190.391 455.357 190.074 454.723L189.782 454.085 189.096 453.734 189.137 453.734 190.885 453.343 190.844 453.302C190.261 453.209 189.762 453.127 189.345 453.055 188.929 452.988 188.581 452.9 188.305 452.787L189.678 452.23C189.678 452.179 189.08 452.102 187.889 452.004 187.431 451.746 186.599 450.397 185.392 447.966 184.643 447.693 183.187 447.358 181.023 446.956Z" fill="#A1252D" fill-rule="evenodd"/><path d="M219.496 456.917C219.851 457.017 220.298 457.079 220.833 457.106 221.121 457.121 221.635 457.1 222.375 457.043 223.126 456.991 224.134 456.896 225.398 456.771 225.285 456.269 225.157 455.558 225.008 454.638 224.853 453.718 224.648 452.558 224.391 451.146ZM204.217 467.916C206.191 467.634 207.898 466.703 209.338 465.114 209.363 465.083 210.335 463.708 212.258 460.974L214.911 459.991 213.307 459.343 216.124 456.081 217.892 456.081 217.831 454.722C217.98 454.596 218.227 454.304 218.571 453.844 218.91 453.384 219.399 452.772 220.031 452.004 220.453 451.491 220.884 451.031 221.327 450.623 221.779 450.205 222.262 449.844 222.787 449.536L226.015 449.432 222.56 448.428C223.244 448.109 223.882 447.628 224.473 446.985 225.074 446.347 225.573 445.689 225.974 445.02L227.434 446.943 227.249 445.082C228.205 445.291 229.593 448.48 231.403 454.638 233.336 461.037 234.518 464.382 234.961 464.675 235.547 465.104 236.57 465.627 238.025 466.243L237.922 466.641C237.701 466.625 237.428 466.604 237.099 466.578 236.78 466.547 236.441 466.515 236.071 466.473 235.701 466.442 235.351 466.411 235.022 466.369 234.693 466.337 234.431 466.317 234.241 466.306L233.5 466.411 233.686 466.787 233.521 466.871C231.259 466.604 229.269 466.379 227.558 466.202 225.856 466.034 224.401 465.914 223.198 465.846L221.902 465.783 223.28 464.947 227.311 464.299 227.64 463.985C227.609 463.666 227.558 463.337 227.475 463.002 227.393 462.668 227.29 462.328 227.167 461.978L230.436 460.388 226.694 460.535 226.077 459.176C225.198 458.982 224.396 458.836 223.671 458.737 222.956 458.627 222.319 458.559 221.758 458.527 221.167 458.486 220.555 458.486 219.928 458.527 219.296 458.569 218.653 458.643 217.995 458.737L214.828 462.396C213.759 463.64 212.864 464.879 212.155 466.118L212.34 466.745C212.381 466.771 212.494 466.792 212.69 466.808 212.947 466.818 213.317 466.787 213.8 466.703 214.278 466.62 214.643 466.583 214.89 466.599 215.286 466.625 215.713 466.813 216.165 467.163L215.733 467.498 215.569 467.498C214.952 467.467 213.99 467.55 212.69 467.749 212.042 467.843 211.481 467.906 211.003 467.937 210.52 467.979 210.099 467.968 209.728 467.916 210.207 468.11 210.536 468.319 210.716 468.544 209.975 468.638 208.788 468.742 207.158 468.857 206.335 468.925 205.646 468.972 205.081 469.003 204.521 469.03 204.084 469.024 203.765 468.983L203.025 468.941Z" fill="#A1252D" fill-rule="evenodd"/><path d="M269.006 451.457C268.934 454.418 268.742 456.337 268.426 457.213L268.385 457.234C268.064 454.872 267.209 453.287 265.816 452.479 264.666 451.827 262.278 451.248 258.647 450.748 252.929 449.945 249.013 452.354 246.9 457.985 246.123 460.112 246.216 462.026 247.169 463.721 246.517 463.585 245.968 463.465 245.512 463.366 245.056 463.272 244.673 463.199 244.372 463.158L244.061 463.199C243.979 463.356 245.263 463.861 247.915 464.722 248.537 465.488 249.412 466.109 250.546 466.599 251.691 467.1 253.064 467.459 254.669 467.684 256.824 467.976 257.969 467.923 258.108 467.538 258.285 467.454 258.492 467.277 258.73 467.016 258.699 466.609 258.357 466.083 257.694 465.431 257.787 465.17 257.891 464.967 258.005 464.826 258.114 464.691 258.196 464.597 258.253 464.555 258.512 464.32 258.896 464.153 259.393 464.054 259.543 463.971 259.73 463.856 259.952 463.7 260.17 463.533 260.429 463.34 260.719 463.116 260.387 463.215 259.994 463.356 259.538 463.533 259.093 463.7 258.554 463.888 257.922 464.096L257.839 463.992C257.932 463.773 258.046 463.403 258.171 462.886 258.305 462.36 258.424 461.979 258.523 461.739L258.689 461.656C259.046 461.771 259.383 461.948 259.704 462.198L259.745 462.156C259.647 461.864 259.559 461.645 259.476 461.489 259.403 461.338 259.336 461.228 259.269 461.155 258.989 460.936 258.445 460.769 257.632 460.655 256.705 460.53 255.715 460.629 254.669 460.947L254.649 460.863C253.695 461.03 252.929 461.51 252.349 462.302L252.432 461.406C252.68 460.811 253.328 460.154 254.379 459.445L256.43 459.153C256.995 459.226 257.684 459.341 258.502 459.508 259.331 459.664 260.268 459.841 261.32 460.05 262.397 460.248 263.35 460.425 264.179 460.592 265.018 460.749 265.722 460.863 266.292 460.947 266.717 461.004 267.147 461.061 267.577 461.114 268.001 461.155 268.447 461.192 268.903 461.218L269.027 461.28C268.778 461.463 268.323 461.656 267.66 461.864 267.007 462.063 266.168 462.276 265.132 462.511 264.687 463.053 264.376 463.575 264.2 464.075 264.003 464.591 264.06 465.483 264.365 466.745 264.738 467.882 264.811 468.747 264.593 469.331 264.427 469.774 263.547 470.004 261.962 470.02 260.786 470.02 259.683 469.947 258.647 469.811L251.334 468.789C247.63 468.273 244.507 467.021 241.969 465.035 242.533 465.009 243.072 464.983 243.585 464.951 244.093 464.91 244.631 464.857 245.201 464.784L242.694 464.492 241.161 464.263C240.456 463.543 240.021 462.605 239.856 461.447 239.731 460.811 239.597 460.274 239.462 459.841 239.322 459.398 239.177 459.064 239.027 458.84 239.452 458.704 240.716 458.694 242.818 458.819 242.388 458.642 241.865 458.439 241.244 458.214 240.633 457.98 239.902 457.703 239.048 457.38 239.348 457.37 239.659 457.333 239.98 457.276 240.311 457.208 240.669 457.145 241.057 457.088 240.933 457.046 240.767 456.999 240.56 456.942 240.353 456.89 240.094 456.827 239.793 456.754 240.399 455.143 241.296 453.725 242.487 452.5 243.673 451.279 245.103 450.31 246.776 449.6 248.459 448.881 250.365 448.401 252.494 448.161 254.633 447.927 256.948 447.984 259.434 448.328 261.682 448.636 263.588 449.079 265.153 449.663 266.727 450.247 268.012 450.847 269.006 451.457Z" fill="#A1252D" fill-rule="evenodd"/></g></svg>