<svg width="322" height="206" xmlns="http://www.w3.org/2000/svg" xmlns:xlink="http://www.w3.org/1999/xlink" overflow="hidden"><g transform="translate(-463 -173)"><path d="M589.523 310.775C617.981 306.466 646.689 304.957 674.863 306.307 679.361 306.524 683.851 306.824 688.341 307.183 726.872 273.942 722.883 232 722.883 232 696.152 275.134 621.928 302.757 562 298.672 569.845 305.791 576.513 309.233 581.945 312 584.466 311.575 586.994 311.158 589.523 310.775" fill="#A1252D" fill-rule="evenodd"/><path d="M463 353C463 353 608.128 270.342 784 329.079 784 329.079 625.907 290.735 463 353" fill="#B24243" fill-rule="evenodd"/><path d="M589 290C597.598 272.416 614.541 226.922 590.436 204 590.436 204 629.729 226.939 637 273.911 615.397 258.39 597.866 279.583 589 290" fill="#B19013" fill-rule="evenodd"/><path d="M619 292C636.424 267.413 651.774 214.165 621.366 173 621.366 173 688.05 189.009 686.988 262.484 666.583 236.224 620.635 291.615 619 292" fill="#B19013" fill-rule="evenodd"/><path d="M523.829 368.516C523.315 368.516 522.8 368.541 522.269 368.583 521.738 368.609 521.248 368.642 520.809 368.685 521.273 367.723 521.638 366.677 521.904 365.547 522.169 364.425 522.369 363.169 522.501 361.769 522.518 361.389 522.535 360.647 522.535 359.542 522.551 358.446 522.643 356.894 522.8 354.887L525.389 354.381 522.103 352.121C522.145 349.557 522.203 348.098 522.269 347.735 522.684 345.399 523.472 344.125 524.626 343.923L525.223 343.788 523.696 342.54C521.149 342.877 518.485 342.843 515.697 342.439L516.261 342.337C516.966 342.203 518.037 342.084 519.481 341.966L519.68 341.831C519.282 341.722 518.734 341.587 518.054 341.427 517.39 341.25 516.601 341.047 515.697 340.819L516.327 340.583C523.738 339.436 529.472 338.483 533.522 337.716 534.269 337.564 535.148 337.362 536.144 337.109 537.157 336.839 538.302 336.484 539.563 336.029L541.057 336.434 541.687 337.513C540.335 337.986 539.215 338.357 538.335 338.627 537.447 338.88 536.891 339.057 536.675 339.166 534.169 340.069 532.974 340.904 533.09 341.663L530.8 344.496 534.352 342.945C533.356 343.577 531.929 344.615 530.07 346.048L530.003 347.87 531.331 345.947 532.858 346.386 531.995 366.323 532.26 367.369 537.173 366.087 536.742 367.706C537.273 367.419 538.103 367.082 539.231 366.694 540.376 366.315 541.77 365.868 543.414 365.345 545.248 364.738 546.799 364.223 548.061 363.793 549.322 363.371 550.26 363.009 550.882 362.713 553.314 361.634 554.567 360.537 554.633 359.407 554.633 358.893 554.177 357.805 553.272 356.135L556.691 356.978C558.326 358.851 559.098 360.445 559.015 361.769 558.99 363.051 558.757 364.366 558.318 365.716L555.895 366.256C555.297 366.416 554.666 366.576 554.002 366.728 553.355 366.863 552.658 366.998 551.911 367.133 550.799 367.36 549.422 367.605 547.762 367.875 546.102 368.145 544.177 368.448 541.986 368.786 539.837 369.106 537.945 369.385 536.31 369.629 534.667 369.882 533.331 370.093 532.294 370.27 531.87 370.363 531.298 370.464 530.568 370.574 529.837 370.692 529.09 370.827 528.344 370.979 527.588 371.113 526.85 371.24 526.12 371.35 525.406 371.442 524.867 371.535 524.493 371.619 517.896 372.885 513.074 375.01 510.021 378.029 510.112 376.899 510.402 375.921 510.884 375.094 511.348 374.268 512.079 373.526 513.074 372.868 513.979 372.244 515.879 371.451 518.784 370.506 520.311 369.966 521.472 369.545 522.269 369.224 523.082 368.887 523.605 368.651 523.829 368.516Z" fill="#A1252D" fill-rule="evenodd"/><path d="M573.605 350.219C574.187 350.284 574.921 350.276 575.798 350.186 576.27 350.145 577.097 349.99 578.294 349.728 579.483 349.449 581.094 349.04 583.118 348.517 582.798 347.781 582.393 346.717 581.904 345.343 581.432 343.952 580.807 342.201 580.048 340.107ZM551.677 371.13C554.798 370.189 557.328 368.315 559.268 365.501 559.285 365.46 560.491 363.079 562.877 358.367L566.993 356.207 564.193 355.618 567.904 349.826 570.805 349.401 570.367 347.273C570.569 347.036 570.881 346.521 571.311 345.735 571.758 344.934 572.391 343.862 573.2 342.528 573.757 341.612 574.347 340.786 574.954 340.041 575.562 339.305 576.253 338.634 577.046 338.045L582.207 337.063 576.371 336.376C577.383 335.705 578.294 334.797 579.104 333.66 579.913 332.531 580.554 331.386 581.027 330.224L583.861 332.809 583.085 330.028C584.704 330.093 587.782 334.642 592.328 343.674 597.068 353.123 599.834 358.007 600.627 358.334 601.706 358.842 603.503 359.373 606.024 359.938L605.957 360.592C605.594 360.641 605.147 360.682 604.607 360.723 604.068 360.748 603.494 360.78 602.887 360.821 602.297 360.87 601.723 360.911 601.167 360.952 600.627 360.977 600.197 361.001 599.884 361.018L598.738 361.345 599.142 361.901 598.872 362.065C595.136 362.245 591.864 362.417 589.056 362.588 586.264 362.744 583.877 362.916 581.904 363.112L579.812 363.341 581.803 361.705 588.145 359.709 588.617 359.12C588.457 358.645 588.263 358.154 588.044 357.647 587.841 357.148 587.605 356.633 587.335 356.109L592.227 352.869 586.154 354.047 584.805 352.084C583.338 352.018 582.013 352.002 580.824 352.018 579.627 352.018 578.581 352.076 577.687 352.182 576.717 352.272 575.713 352.427 574.685 352.64 573.673 352.861 572.66 353.131 571.648 353.458L567.465 359.938C566.023 362.098 564.885 364.241 564.058 366.352L564.497 367.268C564.581 367.284 564.783 367.284 565.104 367.268 565.526 367.219 566.124 367.072 566.892 366.81 567.676 366.564 568.275 366.425 568.68 366.385 569.304 366.319 570.029 366.499 570.839 366.941L570.232 367.563 569.962 367.595C568.966 367.677 567.432 368.053 565.34 368.708 564.302 369.035 563.4 369.273 562.641 369.428 561.899 369.6 561.224 369.698 560.617 369.722 561.427 369.894 562.009 370.132 562.371 370.442 561.199 370.77 559.301 371.228 556.67 371.817 555.363 372.144 554.258 372.389 553.364 372.569 552.47 372.766 551.762 372.872 551.239 372.897L550.024 373.028Z" fill="#A1252D" fill-rule="evenodd"/><path d="M606.158 329.517C607.289 329.319 608.568 329.203 609.994 329.153 611.15 329.137 613.011 329.17 615.568 329.253 618.011 329.319 619.88 329.335 621.175 329.286 621.568 329.286 622.093 329.244 622.748 329.153 623.421 329.07 624.125 328.955 624.847 328.822 625.584 328.673 626.306 328.549 627.011 328.458 627.707 328.375 628.257 328.325 628.65 328.325L628.945 328.359C628.896 328.69 627.675 329.302 625.273 330.18 624.044 330.668 623.06 331.057 622.322 331.339 621.601 331.628 621.125 331.852 620.912 332.001 621.65 333.019 622.584 334.253 623.699 335.71 624.814 337.15 626.101 338.855 627.568 340.842L627.535 340.974 626.093 343.193 626.158 343.325C626.748 342.978 627.535 342.655 628.519 342.365 629.06 342.431 629.585 342.945 630.093 343.888 631.798 342.547 633.273 341.339 634.519 340.279 635.781 339.219 636.814 338.359 637.601 337.696 640.371 335.18 642.519 332.978 644.027 331.074L646.355 330.743C645.044 329.948 643.314 329.137 641.175 328.292L641.109 328.359C645.019 328.408 648.306 328.392 650.978 328.325 652.003 328.284 652.929 328.243 653.765 328.193 654.593 328.152 655.347 328.094 656.027 328.027L656.027 328.193C651.044 330.18 643.273 336.297 632.716 346.537 632.494 346.67 632.134 348.127 631.634 350.908 631.634 350.867 630.781 355.842 629.076 365.842L630.06 366.869C630.716 366.869 631.503 366.885 632.421 366.935 633.339 366.976 634.371 367.076 635.535 367.233L636.748 368.624C627.216 368.971 618.191 370.445 609.666 373.028L612.683 370.842 610.125 370.643C611.281 370.246 612.462 369.816 613.666 369.352 614.888 368.888 616.158 368.342 617.47 367.729 618.625 366.488 619.502 364.319 620.093 361.206 620.33 359.973 620.371 359.071 620.224 358.491 621.093 357.746 622.437 357.067 624.257 356.471 624.125 356.339 624.06 356.297 624.06 356.339 624.06 356.297 624.101 356.273 624.191 356.273 623.945 356.099 623.248 355.933 622.093 355.776 621.06 355.668 620.47 355.412 620.322 355.014 620.585 354.551 620.781 354.079 620.912 353.59 621.06 353.085 621.183 352.581 621.273 352.067 621.617 350.345 621.371 348.872 620.519 347.63 620.298 347.299 619.994 346.802 619.601 346.14 619.224 345.478 618.789 344.642 618.289 343.623L617.83 342.597 616.748 342.034 616.814 342.034 619.568 341.405 619.502 341.339C618.584 341.19 617.797 341.057 617.142 340.941 616.486 340.834 615.937 340.693 615.503 340.511L617.667 339.617C617.667 339.534 616.724 339.41 614.847 339.253 614.125 338.839 612.814 336.67 610.912 332.763 609.732 332.324 607.437 331.786 604.027 331.14Z" fill="#A1252D" fill-rule="evenodd"/><path d="M665.385 346.866C665.953 347.023 666.669 347.122 667.524 347.164 667.985 347.188 668.807 347.155 669.992 347.064 671.193 346.982 672.805 346.833 674.829 346.634 674.648 345.839 674.442 344.714 674.203 343.257 673.957 341.8 673.628 339.963 673.216 337.728ZM640.939 364.281C644.098 363.834 646.828 362.36 649.132 359.844 649.173 359.794 650.727 357.617 653.804 353.289L658.048 351.733 655.482 350.706 659.99 345.541 662.819 345.541 662.721 343.389C662.959 343.191 663.354 342.727 663.905 341.999 664.448 341.271 665.229 340.302 666.241 339.085 666.916 338.274 667.607 337.546 668.314 336.9 669.038 336.238 669.811 335.667 670.65 335.179L675.816 335.013 670.288 333.424C671.382 332.919 672.402 332.158 673.348 331.139 674.31 330.13 675.108 329.087 675.75 328.027L678.086 331.073 677.79 328.127C679.32 328.458 681.541 333.507 684.436 343.257 687.529 353.388 689.421 358.685 690.128 359.149 691.066 359.827 692.703 360.655 695.031 361.632L694.866 362.261C694.513 362.236 694.077 362.203 693.55 362.162 693.04 362.112 692.497 362.062 691.905 361.996 691.313 361.946 690.753 361.897 690.227 361.83 689.701 361.781 689.281 361.748 688.977 361.731L687.792 361.897 688.088 362.493 687.825 362.625C684.206 362.203 681.023 361.847 678.283 361.566 675.561 361.301 673.233 361.11 671.308 361.003L669.235 360.903 671.44 359.579 677.888 358.553 678.415 358.056C678.366 357.551 678.283 357.03 678.152 356.5 678.02 355.97 677.856 355.432 677.658 354.878L682.89 352.362 676.901 352.593 675.914 350.441C674.508 350.135 673.225 349.903 672.065 349.746 670.921 349.572 669.901 349.465 669.005 349.415 668.059 349.349 667.08 349.349 666.076 349.415 665.065 349.481 664.036 349.597 662.984 349.746L657.917 355.54C656.206 357.51 654.774 359.472 653.639 361.433L653.935 362.426C654.001 362.468 654.182 362.501 654.495 362.526 654.906 362.542 655.498 362.493 656.272 362.36 657.037 362.228 657.621 362.17 658.015 362.195 658.649 362.236 659.332 362.534 660.055 363.089L659.364 363.618 659.101 363.618C658.114 363.569 656.576 363.701 654.495 364.016 653.458 364.165 652.562 364.264 651.797 364.314 651.024 364.38 650.349 364.363 649.757 364.281 650.522 364.587 651.048 364.918 651.336 365.274 650.152 365.423 648.252 365.588 645.644 365.77 644.328 365.878 643.226 365.952 642.321 366.002 641.424 366.044 640.725 366.035 640.215 365.969L639.031 365.903Z" fill="#A1252D" fill-rule="evenodd"/><path d="M745.001 338.496C744.883 343.208 744.57 346.26 744.054 347.654L743.986 347.687C743.462 343.929 742.066 341.407 739.79 340.122 737.912 339.085 734.012 338.164 728.081 337.368 718.742 336.09 712.346 339.923 708.894 348.882 707.625 352.266 707.778 355.311 709.334 358.007 708.268 357.791 707.371 357.6 706.627 357.443 705.882 357.293 705.256 357.177 704.766 357.111L704.258 357.177C704.123 357.426 706.221 358.231 710.552 359.599 711.568 360.819 712.997 361.806 714.85 362.586 716.72 363.382 718.962 363.955 721.584 364.311 725.104 364.776 726.973 364.693 727.202 364.079 727.489 363.946 727.828 363.664 728.217 363.249 728.166 362.602 727.608 361.765 726.525 360.728 726.677 360.313 726.846 359.989 727.032 359.765 727.21 359.55 727.345 359.4 727.438 359.334 727.861 358.961 728.487 358.695 729.3 358.538 729.545 358.405 729.849 358.222 730.213 357.973 730.569 357.708 730.992 357.401 731.465 357.044 730.924 357.202 730.281 357.426 729.537 357.708 728.809 357.973 727.929 358.272 726.897 358.604L726.762 358.438C726.914 358.09 727.1 357.501 727.303 356.679 727.523 355.842 727.718 355.236 727.878 354.854L728.149 354.722C728.733 354.904 729.283 355.186 729.807 355.584L729.875 355.518C729.714 355.054 729.57 354.705 729.435 354.456 729.317 354.216 729.207 354.041 729.097 353.925 728.64 353.577 727.751 353.311 726.423 353.129 724.909 352.93 723.293 353.087 721.584 353.593L721.55 353.461C719.994 353.726 718.742 354.489 717.794 355.75L717.93 354.323C718.336 353.378 719.393 352.333 721.11 351.204L724.461 350.74C725.383 350.856 726.508 351.039 727.845 351.304 729.198 351.553 730.729 351.835 732.447 352.167 734.206 352.482 735.763 352.764 737.117 353.029 738.487 353.278 739.638 353.461 740.568 353.593 741.262 353.685 741.964 353.776 742.666 353.859 743.36 353.925 744.088 353.983 744.832 354.025L745.035 354.124C744.629 354.415 743.885 354.722 742.802 355.054 741.736 355.369 740.365 355.709 738.673 356.082 737.946 356.945 737.438 357.774 737.15 358.571 736.829 359.392 736.922 360.811 737.421 362.818 738.03 364.626 738.149 366.003 737.794 366.932 737.523 367.638 736.085 368.003 733.496 368.028 731.575 368.028 729.773 367.911 728.081 367.696L716.136 366.07C710.087 365.249 704.986 363.258 700.84 360.097 701.762 360.056 702.642 360.014 703.48 359.964 704.309 359.898 705.189 359.815 706.119 359.699L702.025 359.234 699.521 358.869C698.37 357.725 697.659 356.231 697.389 354.39 697.186 353.378 696.966 352.523 696.746 351.835 696.517 351.13 696.28 350.599 696.035 350.242 696.729 350.026 698.793 350.01 702.228 350.209 701.526 349.927 700.671 349.603 699.656 349.247 698.658 348.873 697.465 348.434 696.069 347.919 696.56 347.903 697.067 347.845 697.592 347.753 698.133 347.646 698.717 347.546 699.351 347.455 699.148 347.389 698.878 347.314 698.539 347.223 698.201 347.14 697.778 347.04 697.287 346.924 698.277 344.361 699.741 342.104 701.686 340.155 703.624 338.214 705.959 336.671 708.691 335.543 711.441 334.398 714.554 333.635 718.031 333.253 721.525 332.88 725.307 332.971 729.367 333.519 733.039 334.008 736.152 334.713 738.707 335.642 741.279 336.571 743.377 337.525 745.001 338.496Z" fill="#A1252D" fill-rule="evenodd"/></g></svg>