<svg xmlns="http://www.w3.org/2000/svg" xmlns:xlink="http://www.w3.org/1999/xlink" width="500" zoomAndPan="magnify" viewBox="0 0 375 374.999991" height="500" preserveAspectRatio="xMidYMid meet" version="1.0"><defs><g/><clipPath id="b337d936c7"><path d="M 301 232 L 309 232 L 309 243.949219 L 301 243.949219 Z M 301 232 " clip-rule="nonzero"/></clipPath><clipPath id="8b47360d80"><path d="M 195.488281 123.0625 L 244.304688 123.0625 L 244.304688 173.515625 L 195.488281 173.515625 Z M 195.488281 123.0625 " clip-rule="nonzero"/></clipPath><clipPath id="679f8b9b5f"><path d="M 238.238281 136.171875 C 238.238281 146.457031 237.023438 157.34375 238.164062 167.527344 C 225.976562 167.550781 212.605469 168.582031 200.628906 166.777344 C 200.15625 160.667969 200.714844 154.542969 200.992188 148.4375 C 201.300781 141.539062 200.796875 134.632812 200.988281 127.722656 C 203.183594 127.027344 207.246094 128.046875 209.640625 128.011719 C 212.867188 127.972656 216.09375 127.800781 219.316406 127.660156 C 225.539062 127.386719 231.835938 127.132812 238.023438 128.039062 C 238.070312 128.046875 238.097656 128.097656 238.101562 128.140625 C 238.199219 130.816406 238.238281 133.492188 238.238281 136.171875 Z M 243.269531 123.640625 C 227.828125 123.035156 212.363281 122.945312 196.914062 123.367188 C 195.558594 138.128906 195.476562 152.96875 195.523438 167.773438 C 195.527344 168.6875 195.554688 169.679688 196.082031 170.414062 C 196.113281 170.457031 196.144531 170.496094 196.175781 170.535156 C 196.648438 171.105469 197.375 171.382812 198.074219 171.621094 C 204.984375 174.011719 209.972656 172.863281 216.929688 173.164062 C 225.582031 173.53125 234.230469 173.832031 242.832031 172.527344 C 243.925781 172.363281 243.542969 155.425781 243.671875 153.792969 C 243.863281 151.410156 245.199219 123.726562 243.269531 123.640625 Z M 243.269531 123.640625 " clip-rule="nonzero"/></clipPath><clipPath id="9ab30f98a5"><path d="M 238.238281 136.171875 C 238.238281 146.457031 237.023438 157.34375 238.164062 167.527344 C 225.976562 167.550781 212.605469 168.578125 200.628906 166.777344 C 200.15625 160.667969 200.714844 154.542969 200.992188 148.4375 C 201.300781 141.539062 200.796875 134.632812 200.988281 127.722656 C 203.183594 127.027344 207.246094 128.042969 209.644531 128.011719 C 212.871094 127.96875 216.09375 127.800781 219.316406 127.65625 C 225.539062 127.382812 231.835938 127.132812 238.023438 128.039062 C 238.070312 128.046875 238.097656 128.097656 238.101562 128.140625 C 238.199219 130.816406 238.238281 133.492188 238.238281 136.171875 Z M 243.269531 123.640625 C 227.828125 123.035156 212.363281 122.941406 196.914062 123.367188 C 195.558594 138.125 195.476562 152.96875 195.523438 167.773438 C 195.527344 168.6875 195.554688 169.679688 196.082031 170.414062 C 196.113281 170.457031 196.144531 170.496094 196.175781 170.535156 C 196.648438 171.105469 197.375 171.382812 198.074219 171.621094 C 204.984375 174.011719 209.976562 172.863281 216.929688 173.160156 C 225.585938 173.53125 234.230469 173.832031 242.832031 172.527344 C 243.925781 172.363281 243.542969 155.421875 243.671875 153.792969 C 243.863281 151.410156 245.199219 123.726562 243.269531 123.640625 " clip-rule="nonzero"/></clipPath><clipPath id="29bfde9ecf"><path d="M 195.164062 122.945312 L 195.476562 174.3125 L 245.511719 174.007812 L 245.199219 122.640625 Z M 195.164062 122.945312 " clip-rule="nonzero"/></clipPath><linearGradient x1="-0.000192474" gradientTransform="matrix(48.986789, -0.299247, 0.299247, 48.986789, 195.34535, 148.339596)" y1="0" x2="1.002565" gradientUnits="userSpaceOnUse" y2="0" id="b83b24173a"><stop stop-opacity="1" stop-color="rgb(97.299194%, 70.199585%, 1.998901%)" offset="0"/><stop stop-opacity="1" stop-color="rgb(97.299194%, 70.213318%, 2.012634%)" offset="0.015625"/><stop stop-opacity="1" stop-color="rgb(97.299194%, 70.413208%, 2.212524%)" offset="0.03125"/><stop stop-opacity="1" stop-color="rgb(97.299194%, 70.608521%, 2.398682%)" offset="0.046875"/><stop stop-opacity="1" stop-color="rgb(97.299194%, 70.809937%, 2.400208%)" offset="0.0625"/><stop stop-opacity="1" stop-color="rgb(97.299194%, 71.104431%, 2.478027%)" offset="0.0703125"/><stop stop-opacity="1" stop-color="rgb(97.302246%, 71.302795%, 2.626038%)" offset="0.078125"/><stop stop-opacity="1" stop-color="rgb(97.450256%, 71.398926%, 2.69928%)" offset="0.09375"/><stop stop-opacity="1" stop-color="rgb(97.596741%, 71.498108%, 2.798462%)" offset="0.101563"/><stop stop-opacity="1" stop-color="rgb(97.599792%, 71.697998%, 2.998352%)" offset="0.109375"/><stop stop-opacity="1" stop-color="rgb(97.599792%, 71.798706%, 3.09906%)" offset="0.125"/><stop stop-opacity="1" stop-color="rgb(97.599792%, 71.983337%, 3.09906%)" offset="0.140625"/><stop stop-opacity="1" stop-color="rgb(97.599792%, 72.323608%, 3.286743%)" offset="0.15625"/><stop stop-opacity="1" stop-color="rgb(97.599792%, 72.660828%, 3.657532%)" offset="0.1875"/><stop stop-opacity="1" stop-color="rgb(97.599792%, 72.943115%, 3.869629%)" offset="0.195313"/><stop stop-opacity="1" stop-color="rgb(97.599792%, 73.146057%, 3.898621%)" offset="0.203125"/><stop stop-opacity="1" stop-color="rgb(97.599792%, 73.272705%, 4.066467%)" offset="0.21875"/><stop stop-opacity="1" stop-color="rgb(97.769165%, 73.468018%, 4.266357%)" offset="0.234375"/><stop stop-opacity="1" stop-color="rgb(97.969055%, 73.669434%, 4.299927%)" offset="0.25"/><stop stop-opacity="1" stop-color="rgb(97.999573%, 73.854065%, 4.454041%)" offset="0.265625"/><stop stop-opacity="1" stop-color="rgb(97.999573%, 74.108887%, 4.653931%)" offset="0.273438"/><stop stop-opacity="1" stop-color="rgb(97.999573%, 74.310303%, 4.699707%)" offset="0.28125"/><stop stop-opacity="1" stop-color="rgb(97.999573%, 74.455261%, 4.849243%)" offset="0.296875"/><stop stop-opacity="1" stop-color="rgb(97.999573%, 74.641418%, 5.049133%)" offset="0.3125"/><stop stop-opacity="1" stop-color="rgb(97.999573%, 74.841309%, 5.099487%)" offset="0.328125"/><stop stop-opacity="1" stop-color="rgb(97.999573%, 75.036621%, 5.236816%)" offset="0.34375"/><stop stop-opacity="1" stop-color="rgb(97.999573%, 75.273132%, 5.436707%)" offset="0.351562"/><stop stop-opacity="1" stop-color="rgb(97.999573%, 75.473022%, 5.499268%)" offset="0.359375"/><stop stop-opacity="1" stop-color="rgb(98.132324%, 75.636292%, 5.632019%)" offset="0.375"/><stop stop-opacity="1" stop-color="rgb(98.332214%, 75.823975%, 5.831909%)" offset="0.390625"/><stop stop-opacity="1" stop-color="rgb(98.399353%, 76.023865%, 6.02417%)" offset="0.40625"/><stop stop-opacity="1" stop-color="rgb(98.399353%, 76.219177%, 6.22406%)" offset="0.421875"/><stop stop-opacity="1" stop-color="rgb(98.399353%, 76.533508%, 6.298828%)" offset="0.4375"/><stop stop-opacity="1" stop-color="rgb(98.399353%, 76.812744%, 6.410217%)" offset="0.453125"/><stop stop-opacity="1" stop-color="rgb(98.399353%, 77.008057%, 6.610107%)" offset="0.46875"/><stop stop-opacity="1" stop-color="rgb(98.399353%, 77.207947%, 6.80542%)" offset="0.484375"/><stop stop-opacity="1" stop-color="rgb(98.503113%, 77.377319%, 7.006836%)" offset="0.5"/><stop stop-opacity="1" stop-color="rgb(98.703003%, 77.622986%, 7.099915%)" offset="0.515625"/><stop stop-opacity="1" stop-color="rgb(98.799133%, 77.894592%, 7.192993%)" offset="0.53125"/><stop stop-opacity="1" stop-color="rgb(98.799133%, 78.091431%, 7.392883%)" offset="0.546875"/><stop stop-opacity="1" stop-color="rgb(98.799133%, 78.291321%, 7.562256%)" offset="0.5625"/><stop stop-opacity="1" stop-color="rgb(98.799133%, 78.479004%, 7.711792%)" offset="0.578125"/><stop stop-opacity="1" stop-color="rgb(98.799133%, 78.662109%, 7.798767%)" offset="0.585938"/><stop stop-opacity="1" stop-color="rgb(98.799133%, 78.860474%, 7.878113%)" offset="0.59375"/><stop stop-opacity="1" stop-color="rgb(98.799133%, 79.153442%, 8.078003%)" offset="0.625"/><stop stop-opacity="1" stop-color="rgb(98.864746%, 79.473877%, 8.265686%)" offset="0.640625"/><stop stop-opacity="1" stop-color="rgb(99.064636%, 79.66156%, 8.465576%)" offset="0.65625"/><stop stop-opacity="1" stop-color="rgb(99.198914%, 79.826355%, 8.599854%)" offset="0.664062"/><stop stop-opacity="1" stop-color="rgb(99.198914%, 80.026245%, 8.660889%)" offset="0.671875"/><stop stop-opacity="1" stop-color="rgb(99.198914%, 80.26123%, 8.860779%)" offset="0.6875"/><stop stop-opacity="1" stop-color="rgb(99.198914%, 80.447388%, 8.999634%)" offset="0.703125"/><stop stop-opacity="1" stop-color="rgb(99.198914%, 80.59845%, 8.999634%)" offset="0.710937"/><stop stop-opacity="1" stop-color="rgb(99.198914%, 80.799866%, 9.048462%)" offset="0.71875"/><stop stop-opacity="1" stop-color="rgb(99.198914%, 81.048584%, 9.248352%)" offset="0.734375"/><stop stop-opacity="1" stop-color="rgb(99.198914%, 81.243896%, 9.44519%)" offset="0.75"/><stop stop-opacity="1" stop-color="rgb(99.229431%, 81.474304%, 9.645081%)" offset="0.78125"/><stop stop-opacity="1" stop-color="rgb(99.363708%, 81.762695%, 9.799194%)" offset="0.789062"/><stop stop-opacity="1" stop-color="rgb(99.531555%, 81.964111%, 9.831238%)" offset="0.796875"/><stop stop-opacity="1" stop-color="rgb(99.598694%, 82.23114%, 10.031128%)" offset="0.8125"/><stop stop-opacity="1" stop-color="rgb(99.598694%, 82.411194%, 10.215759%)" offset="0.828125"/><stop stop-opacity="1" stop-color="rgb(99.598694%, 82.562256%, 10.415649%)" offset="0.84375"/><stop stop-opacity="1" stop-color="rgb(99.598694%, 82.711792%, 10.610962%)" offset="0.859375"/><stop stop-opacity="1" stop-color="rgb(99.598694%, 82.827759%, 10.726929%)" offset="0.867188"/><stop stop-opacity="1" stop-color="rgb(99.598694%, 83.030701%, 10.913086%)" offset="0.875"/><stop stop-opacity="1" stop-color="rgb(99.598694%, 83.314514%, 10.998535%)" offset="0.90625"/><stop stop-opacity="1" stop-color="rgb(99.598694%, 83.599854%, 11.100769%)" offset="0.914063"/><stop stop-opacity="1" stop-color="rgb(99.601746%, 83.799744%, 11.300659%)" offset="0.921875"/><stop stop-opacity="1" stop-color="rgb(99.797058%, 83.898926%, 11.399841%)" offset="0.9375"/><stop stop-opacity="1" stop-color="rgb(99.993896%, 84.085083%, 11.585999%)" offset="0.953125"/><stop stop-opacity="1" stop-color="rgb(100%, 84.373474%, 11.785889%)" offset="0.960938"/><stop stop-opacity="1" stop-color="rgb(100%, 84.577942%, 11.799622%)" offset="0.96875"/><stop stop-opacity="1" stop-color="rgb(100%, 84.779358%, 11.889648%)" offset="1"/></linearGradient><clipPath id="8e8a30de36"><path d="M 258.820312 118.578125 L 325.238281 118.578125 L 325.238281 180.558594 L 258.820312 180.558594 Z M 258.820312 118.578125 " clip-rule="nonzero"/></clipPath><clipPath id="bad8a482c2"><path d="M 319.246094 178.761719 C 322.113281 176.957031 324.320312 174.085938 325.1875 170.800781 C 325.371094 170.09375 325.5 169.34375 325.332031 168.632812 C 325.0625 167.515625 323.738281 166.695312 322.945312 165.925781 C 321.765625 164.777344 320.691406 163.515625 319.433594 162.449219 C 318.640625 161.773438 317.847656 161.097656 317.058594 160.421875 C 312.277344 156.339844 307.511719 152.246094 302.746094 148.144531 C 296.554688 142.8125 290.375 137.464844 284.222656 132.085938 C 281.59375 129.785156 278.96875 127.480469 276.359375 125.152344 C 275.335938 124.238281 274.316406 123.324219 273.300781 122.402344 C 272.273438 121.464844 271.351562 120.4375 270.34375 119.472656 C 270.023438 119.167969 269.703125 118.859375 269.328125 118.636719 C 269.304688 118.621094 269.28125 118.609375 269.253906 118.609375 C 269.214844 118.609375 269.183594 118.644531 269.164062 118.679688 C 269.117188 118.78125 269.152344 118.898438 269.191406 119 C 269.539062 120.019531 269.75 120.929688 269.613281 122.027344 C 269.539062 122.628906 269.320312 123.292969 268.769531 123.546875 C 268.4375 123.699219 268.050781 123.667969 267.695312 123.585938 C 267.378906 123.507812 267.070312 123.394531 266.78125 123.242188 C 266.421875 123.050781 266.003906 122.800781 265.640625 122.984375 C 266.132812 123.746094 266.785156 124.402344 267.085938 125.277344 C 267.285156 125.859375 267.175781 126.527344 266.871094 127.066406 C 266.570312 127.609375 266.089844 128.03125 265.558594 128.355469 C 264.363281 129.082031 263.460938 128.328125 262.382812 127.773438 C 262.292969 127.980469 262.511719 128.175781 262.667969 128.339844 C 263.039062 128.730469 263.136719 129.308594 263.128906 129.847656 C 263.121094 130.28125 263.03125 130.757812 262.695312 131.027344 C 262.550781 131.148438 262.367188 131.21875 262.1875 131.28125 C 261.621094 131.476562 260.953125 131.785156 260.359375 131.816406 C 259.796875 131.847656 259.351562 131.613281 258.847656 131.550781 C 259.027344 131.996094 259.492188 132.28125 259.8125 132.613281 C 260.167969 132.980469 260.515625 133.347656 260.910156 133.671875 C 261.546875 134.195312 262.175781 134.726562 262.800781 135.265625 C 264.058594 136.339844 265.296875 137.4375 266.527344 138.542969 C 268.992188 140.761719 271.425781 143.011719 273.910156 145.207031 C 277.804688 148.65625 281.285156 152.472656 285.242188 155.808594 C 292.660156 162.070312 300.003906 168.25 307.265625 174.6875 C 308.683594 175.945312 310.175781 177.125 311.605469 178.335938 C 312.601562 179.179688 313.558594 180.8125 315.097656 180.472656 C 316.570312 180.152344 317.976562 179.5625 319.246094 178.761719 Z M 319.246094 178.761719 " clip-rule="nonzero"/></clipPath><clipPath id="a6bdffa259"><path d="M 319.25 178.761719 C 322.113281 176.957031 324.320312 174.082031 325.1875 170.800781 C 325.375 170.09375 325.503906 169.34375 325.332031 168.632812 C 325.0625 167.515625 323.738281 166.695312 322.945312 165.925781 C 321.765625 164.777344 320.691406 163.515625 319.433594 162.449219 C 318.640625 161.773438 317.847656 161.097656 317.054688 160.421875 C 312.277344 156.339844 307.511719 152.246094 302.746094 148.144531 C 296.554688 142.8125 290.375 137.464844 284.222656 132.085938 C 281.59375 129.785156 278.96875 127.480469 276.359375 125.152344 C 275.335938 124.238281 274.316406 123.324219 273.300781 122.402344 C 272.273438 121.464844 271.351562 120.4375 270.34375 119.472656 C 270.027344 119.167969 269.703125 118.859375 269.328125 118.636719 C 269.304688 118.621094 269.28125 118.609375 269.253906 118.609375 C 269.214844 118.609375 269.183594 118.644531 269.164062 118.679688 C 269.117188 118.78125 269.152344 118.898438 269.191406 119 C 269.539062 120.019531 269.75 120.933594 269.613281 122.023438 C 269.539062 122.628906 269.316406 123.292969 268.769531 123.546875 C 268.4375 123.699219 268.050781 123.667969 267.695312 123.585938 C 267.378906 123.507812 267.070312 123.394531 266.785156 123.242188 C 266.421875 123.050781 266.003906 122.800781 265.640625 122.984375 C 266.132812 123.746094 266.785156 124.402344 267.085938 125.273438 C 267.285156 125.859375 267.175781 126.527344 266.875 127.066406 C 266.570312 127.609375 266.089844 128.03125 265.5625 128.355469 C 264.363281 129.082031 263.460938 128.328125 262.386719 127.773438 C 262.292969 127.980469 262.511719 128.175781 262.667969 128.339844 C 263.039062 128.730469 263.136719 129.308594 263.128906 129.847656 C 263.121094 130.28125 263.035156 130.757812 262.695312 131.027344 C 262.550781 131.148438 262.367188 131.21875 262.1875 131.28125 C 261.625 131.476562 260.953125 131.785156 260.359375 131.816406 C 259.796875 131.847656 259.351562 131.613281 258.851562 131.550781 C 259.027344 131.996094 259.492188 132.277344 259.8125 132.613281 C 260.167969 132.980469 260.519531 133.347656 260.910156 133.671875 C 261.546875 134.195312 262.175781 134.726562 262.800781 135.265625 C 264.058594 136.339844 265.296875 137.4375 266.527344 138.542969 C 268.992188 140.761719 271.425781 143.011719 273.910156 145.207031 C 277.804688 148.65625 281.285156 152.472656 285.242188 155.808594 C 292.660156 162.070312 300.003906 168.25 307.265625 174.6875 C 308.683594 175.941406 310.175781 177.125 311.605469 178.335938 C 312.601562 179.179688 313.558594 180.8125 315.097656 180.472656 C 316.570312 180.152344 317.976562 179.5625 319.25 178.761719 " clip-rule="nonzero"/></clipPath><clipPath id="b66d0dfa21"><path d="M 242.09375 123.511719 L 264.101562 198.765625 L 342.257812 175.910156 L 320.25 100.652344 Z M 242.09375 123.511719 " clip-rule="nonzero"/></clipPath><linearGradient x1="-0.257583" gradientTransform="matrix(51.256106, -14.989306, 14.989306, 51.256106, 266.326448, 157.116486)" y1="0" x2="1.261228" gradientUnits="userSpaceOnUse" y2="0" id="0a56c61b80"><stop stop-opacity="1" stop-color="rgb(97.299194%, 70.199585%, 1.998901%)" offset="0"/><stop stop-opacity="1" stop-color="rgb(97.299194%, 70.199585%, 1.998901%)" offset="0.125"/><stop stop-opacity="1" stop-color="rgb(97.299194%, 70.394897%, 1.998901%)" offset="0.1875"/><stop stop-opacity="1" stop-color="rgb(97.299194%, 70.594788%, 2.098083%)" offset="0.195313"/><stop stop-opacity="1" stop-color="rgb(97.299194%, 70.602417%, 2.2995%)" offset="0.203125"/><stop stop-opacity="1" stop-color="rgb(97.299194%, 70.799255%, 2.548218%)" offset="0.21875"/><stop stop-opacity="1" stop-color="rgb(97.373962%, 71.096802%, 2.696228%)" offset="0.226563"/><stop stop-opacity="1" stop-color="rgb(97.525024%, 71.304321%, 2.703857%)" offset="0.234375"/><stop stop-opacity="1" stop-color="rgb(97.599792%, 71.601868%, 2.902222%)" offset="0.25"/><stop stop-opacity="1" stop-color="rgb(97.599792%, 71.990967%, 3.097534%)" offset="0.265625"/><stop stop-opacity="1" stop-color="rgb(97.599792%, 72.265625%, 3.19519%)" offset="0.273438"/><stop stop-opacity="1" stop-color="rgb(97.599792%, 72.422791%, 3.396606%)" offset="0.28125"/><stop stop-opacity="1" stop-color="rgb(97.599792%, 72.694397%, 3.694153%)" offset="0.296875"/><stop stop-opacity="1" stop-color="rgb(97.599792%, 73.083496%, 3.894043%)" offset="0.3125"/><stop stop-opacity="1" stop-color="rgb(97.691345%, 73.381042%, 3.991699%)" offset="0.320313"/><stop stop-opacity="1" stop-color="rgb(97.888184%, 73.588562%, 4.188538%)" offset="0.328125"/><stop stop-opacity="1" stop-color="rgb(97.994995%, 73.886108%, 4.486084%)" offset="0.34375"/><stop stop-opacity="1" stop-color="rgb(97.999573%, 74.183655%, 4.690552%)" offset="0.351563"/><stop stop-opacity="1" stop-color="rgb(97.999573%, 74.391174%, 4.699707%)" offset="0.359375"/><stop stop-opacity="1" stop-color="rgb(97.999573%, 74.49646%, 4.891968%)" offset="0.375"/><stop stop-opacity="1" stop-color="rgb(97.999573%, 74.685669%, 5.091858%)" offset="0.390625"/><stop stop-opacity="1" stop-color="rgb(97.999573%, 74.975586%, 5.189514%)" offset="0.398438"/><stop stop-opacity="1" stop-color="rgb(97.999573%, 75.183105%, 5.383301%)" offset="0.40625"/><stop stop-opacity="1" stop-color="rgb(98.187256%, 75.480652%, 5.680847%)" offset="0.421875"/><stop stop-opacity="1" stop-color="rgb(98.387146%, 75.869751%, 5.886841%)" offset="0.4375"/><stop stop-opacity="1" stop-color="rgb(98.399353%, 76.167297%, 5.984497%)" offset="0.445313"/><stop stop-opacity="1" stop-color="rgb(98.399353%, 76.374817%, 6.175232%)" offset="0.453125"/><stop stop-opacity="1" stop-color="rgb(98.399353%, 76.673889%, 6.472778%)" offset="0.46875"/><stop stop-opacity="1" stop-color="rgb(98.399353%, 76.971436%, 6.68335%)" offset="0.476563"/><stop stop-opacity="1" stop-color="rgb(98.399353%, 77.177429%, 6.698608%)" offset="0.484375"/><stop stop-opacity="1" stop-color="rgb(98.399353%, 77.429199%, 6.884766%)" offset="0.5"/><stop stop-opacity="1" stop-color="rgb(98.579407%, 77.76947%, 7.086182%)" offset="0.515625"/><stop stop-opacity="1" stop-color="rgb(98.779297%, 77.980042%, 7.286072%)" offset="0.53125"/><stop stop-opacity="1" stop-color="rgb(98.799133%, 78.181458%, 7.623291%)" offset="0.546875"/><stop stop-opacity="1" stop-color="rgb(98.799133%, 78.55835%, 7.785034%)" offset="0.5625"/><stop stop-opacity="1" stop-color="rgb(98.799133%, 78.85437%, 7.878113%)" offset="0.570312"/><stop stop-opacity="1" stop-color="rgb(98.799133%, 79.060364%, 8.061218%)" offset="0.578125"/><stop stop-opacity="1" stop-color="rgb(98.799133%, 79.26178%, 8.181763%)" offset="0.585938"/><stop stop-opacity="1" stop-color="rgb(98.799133%, 79.458618%, 8.198547%)" offset="0.59375"/><stop stop-opacity="1" stop-color="rgb(98.880005%, 79.658508%, 8.279419%)" offset="0.601563"/><stop stop-opacity="1" stop-color="rgb(99.064636%, 79.864502%, 8.46405%)" offset="0.609375"/><stop stop-opacity="1" stop-color="rgb(99.183655%, 80.163574%, 8.763123%)" offset="0.625"/><stop stop-opacity="1" stop-color="rgb(99.198914%, 80.552673%, 8.978271%)" offset="0.640625"/><stop stop-opacity="1" stop-color="rgb(99.198914%, 80.85022%, 9.075928%)" offset="0.648437"/><stop stop-opacity="1" stop-color="rgb(99.198914%, 81.056213%, 9.255981%)" offset="0.65625"/><stop stop-opacity="1" stop-color="rgb(99.198914%, 81.257629%, 9.457397%)" offset="0.664062"/><stop stop-opacity="1" stop-color="rgb(99.198914%, 81.452942%, 9.654236%)" offset="0.671875"/><stop stop-opacity="1" stop-color="rgb(99.198914%, 81.744385%, 9.77478%)" offset="0.6875"/><stop stop-opacity="1" stop-color="rgb(99.37439%, 81.968689%, 9.97467%)" offset="0.703125"/><stop stop-opacity="1" stop-color="rgb(99.57428%, 82.171631%, 10.174561%)" offset="0.71875"/><stop stop-opacity="1" stop-color="rgb(99.598694%, 82.504272%, 10.375977%)" offset="0.734375"/><stop stop-opacity="1" stop-color="rgb(99.598694%, 82.759094%, 10.652161%)" offset="0.742188"/><stop stop-opacity="1" stop-color="rgb(99.598694%, 82.948303%, 10.848999%)" offset="0.75"/><stop stop-opacity="1" stop-color="rgb(99.598694%, 83.239746%, 10.972595%)" offset="0.765625"/><stop stop-opacity="1" stop-color="rgb(99.598694%, 83.535767%, 11.068726%)" offset="0.773437"/><stop stop-opacity="1" stop-color="rgb(99.598694%, 83.74176%, 11.242676%)" offset="0.78125"/><stop stop-opacity="1" stop-color="rgb(99.67041%, 83.944702%, 11.444092%)" offset="0.789062"/><stop stop-opacity="1" stop-color="rgb(99.841309%, 84.141541%, 11.64093%)" offset="0.796875"/><stop stop-opacity="1" stop-color="rgb(99.969482%, 84.432983%, 11.769104%)" offset="0.8125"/><stop stop-opacity="1" stop-color="rgb(100%, 84.753418%, 11.889648%)" offset="0.84375"/><stop stop-opacity="1" stop-color="rgb(100%, 84.9823%, 12.081909%)" offset="0.875"/><stop stop-opacity="1" stop-color="rgb(100%, 85.090637%, 12.190247%)" offset="1"/></linearGradient><clipPath id="c9ce110a2d"><path d="M 287 93.949219 L 311 93.949219 L 311 119 L 287 119 Z M 287 93.949219 " clip-rule="nonzero"/></clipPath></defs><path fill="#ffc8a4" d="M 278.945312 158.765625 C 280.691406 159.53125 282.5 160.242188 284.300781 160.769531 C 284.539062 160.839844 284.503906 159.644531 284.476562 159.535156 C 284.34375 159.03125 283.980469 158.785156 283.6875 158.390625 C 282.933594 157.378906 282.367188 156.261719 281.492188 155.332031 C 279.976562 153.726562 279.78125 152.984375 280.511719 150.769531 C 281.410156 148.054688 282.828125 145.410156 283.976562 142.785156 C 284.019531 145.347656 283.828125 147.957031 284.179688 150.5 C 284.546875 153.160156 284.839844 155.832031 285.0625 158.511719 C 286.015625 158.433594 286.960938 158.296875 287.894531 158.101562 C 288.78125 157.917969 289.601562 157.863281 290.503906 157.773438 C 292.347656 157.589844 294.1875 157.285156 295.949219 156.691406 C 297.335938 156.230469 298.863281 155.433594 300.351562 155.640625 C 302.117188 155.882812 303.789062 156.078125 305.578125 156.042969 C 305.007812 154.121094 304.488281 152.191406 304.15625 150.21875 C 303.632812 147.132812 303.601562 143.992188 303.355469 140.890625 C 303.164062 138.519531 304.445312 135.492188 306.328125 133.988281 C 306.679688 133.707031 307.066406 133.460938 307.335938 133.101562 C 308.054688 132.144531 307.675781 130.765625 307.105469 129.714844 C 305.546875 126.851562 303.425781 124.742188 300.117188 124.636719 C 299.765625 124.625 299.402344 124.605469 299.082031 124.453125 C 296.652344 123.308594 299.902344 117.121094 300.664062 115.613281 C 302.105469 112.769531 303.761719 109.914062 303.804688 106.636719 C 303.839844 103.980469 302.488281 101.347656 300.3125 99.828125 C 298.40625 98.496094 295.875 98.039062 293.671875 98.773438 C 289.503906 100.164062 286.988281 103.792969 286.167969 107.988281 C 285.660156 110.59375 285.253906 118.917969 288.558594 120.011719 C 289.519531 120.328125 290.332031 119.964844 291.277344 119.898438 C 291.1875 120.453125 291.097656 121.011719 291.011719 121.566406 C 290.953125 121.910156 290.890625 122.277344 290.664062 122.539062 C 290.476562 122.753906 290.199219 122.875 289.929688 122.976562 C 288.863281 123.375 287.738281 123.601562 286.605469 123.738281 C 284.96875 123.9375 283.34375 124.535156 282.570312 126.082031 C 280.171875 130.875 278.03125 135.796875 276.164062 140.820312 C 274.777344 144.550781 271.566406 150.347656 273.234375 154.375 C 274.015625 156.257812 276.019531 157.4375 277.789062 158.25 C 278.171875 158.421875 278.558594 158.597656 278.945312 158.765625 " fill-opacity="1" fill-rule="nonzero"/><path fill="#37474f" d="M 268.535156 234.058594 C 268.507812 234.066406 268.484375 234.074219 268.457031 234.082031 C 267.644531 234.347656 266.792969 234.316406 265.964844 234.515625 C 265.863281 234.539062 265.371094 235.554688 265.136719 235.710938 C 264.359375 236.234375 263.515625 236.390625 262.660156 236.695312 C 262.3125 236.816406 262.003906 237.042969 261.757812 237.320312 C 260.769531 238.414062 260.824219 240.238281 261.75 241.386719 C 261.753906 241.386719 261.753906 241.386719 261.753906 241.386719 C 263.769531 243.882812 266.332031 242.886719 268.113281 240.730469 C 268.476562 240.292969 272.136719 233.863281 270.453125 233.730469 C 269.71875 233.671875 269.191406 233.84375 268.535156 234.058594 " fill-opacity="1" fill-rule="nonzero"/><g clip-path="url(#b337d936c7)"><path fill="#37474f" d="M 305.917969 232.21875 C 305.121094 232.429688 303.703125 232.871094 303.320312 233.6875 C 303.101562 234.148438 303.285156 234.652344 303.113281 235.148438 C 302.878906 235.839844 302.3125 236.390625 301.933594 237.003906 C 300.863281 238.742188 301.203125 241.578125 303.023438 242.722656 C 304.898438 243.902344 307.304688 242.214844 308.160156 240.460938 C 309.191406 238.339844 308.472656 235.339844 307.476562 233.351562 C 307.101562 232.597656 306.898438 231.960938 305.917969 232.21875 " fill-opacity="1" fill-rule="nonzero"/></g><path fill="#db2b43" d="M 304.40625 224.46875 C 303.972656 223.136719 303.589844 221.808594 303.007812 220.488281 C 300.886719 215.664062 298.765625 210.835938 296.792969 205.949219 C 296.480469 205.183594 296.171875 204.394531 296.164062 203.566406 C 296.160156 202.75 296.449219 201.960938 296.734375 201.195312 C 298.933594 195.304688 301.441406 189.589844 304.253906 183.964844 C 305.980469 179.980469 308.320312 175.203125 308.707031 170.851562 C 308.890625 168.800781 308.753906 166.132812 307.988281 164.183594 C 307.792969 163.6875 304.460938 157.761719 304.800781 157.742188 C 298.875 158.007812 292.949219 158.273438 287.023438 158.539062 C 286.308594 158.570312 285.566406 158.609375 284.925781 158.9375 C 284.210938 159.3125 283.722656 160 283.265625 160.667969 C 278.425781 167.710938 273.832031 174.925781 269.492188 182.285156 C 265.816406 188.519531 262.414062 194.53125 262.664062 202.03125 C 262.828125 207.03125 263.25 212.023438 263.675781 217.007812 C 263.925781 219.921875 264.128906 222.894531 264.585938 225.785156 C 265.085938 228.9375 265.367188 231.980469 265.578125 235.160156 C 265.984375 234.945312 270.726562 234.929688 270.675781 235.175781 C 271.324219 231.921875 271.390625 228.570312 271.773438 225.269531 C 272.175781 221.769531 272.550781 218.265625 272.90625 214.761719 C 273.34375 210.375 273.027344 205.398438 274.9375 201.339844 C 276.566406 197.851562 279.035156 195.261719 281.195312 192.121094 C 282.460938 190.277344 283.582031 188.441406 285.113281 186.785156 C 283.933594 192.238281 283.796875 198.847656 284.917969 204.320312 C 285.867188 208.929688 288.546875 212.90625 291.085938 216.777344 C 294.925781 222.625 299.625 227.953125 303.125 234.007812 C 303.148438 234.046875 303.175781 234.089844 303.214844 234.113281 C 303.285156 234.15625 303.375 234.128906 303.453125 234.097656 C 304.59375 233.652344 305.847656 233.320312 306.914062 232.707031 C 306.960938 232.683594 307.003906 232.65625 307.03125 232.609375 C 307.066406 232.542969 307.046875 232.460938 307.023438 232.386719 C 306.214844 229.738281 305.265625 227.117188 304.40625 224.46875 " fill-opacity="1" fill-rule="nonzero"/><path fill="#db2b43" d="M 259.867188 115.5625 C 259.671875 115.429688 259.441406 115.359375 259.214844 115.285156 C 257.070312 114.570312 255.066406 113.589844 252.921875 112.921875 C 252.4375 112.769531 251.835938 112.511719 251.328125 112.714844 C 250.851562 112.902344 250.785156 113.417969 250.902344 114.027344 C 251.109375 115.097656 251.894531 116.457031 252.078125 116.875 C 252.609375 118.085938 253.136719 119.292969 253.667969 120.503906 C 253.777344 120.722656 253.875 120.945312 253.96875 121.171875 C 254.152344 121.570312 254.328125 121.972656 254.503906 122.375 C 255.582031 121.417969 256.84375 120.710938 257.90625 119.734375 C 258.59375 119.097656 259.132812 118.140625 259.640625 117.363281 C 260.007812 116.804688 260.675781 116.101562 259.867188 115.5625 " fill-opacity="1" fill-rule="nonzero"/><g clip-path="url(#8b47360d80)"><g clip-path="url(#679f8b9b5f)"><g clip-path="url(#9ab30f98a5)"><g clip-path="url(#29bfde9ecf)"><path fill="url(#b83b24173a)" d="M 195.179688 123.0625 L 195.492188 173.8125 L 244.613281 173.511719 L 244.304688 122.761719 Z M 195.179688 123.0625 " fill-rule="nonzero"/></g></g></g></g><path fill="#db2b43" d="M 218.503906 159.792969 C 218.507812 159.792969 218.507812 159.792969 218.507812 159.792969 C 219.296875 160.914062 219.851562 161.703125 220.058594 162.007812 C 220.171875 162.175781 228.480469 149.976562 229.167969 148.878906 C 232.433594 143.675781 235.679688 138.460938 238.90625 133.234375 C 239.625 132.074219 250.851562 113.847656 250.566406 113.683594 C 248.660156 112.609375 247.28125 110.921875 245.503906 109.886719 C 236.660156 123.328125 227.878906 137.351562 219.988281 151.394531 C 218.902344 149.460938 209.277344 132.636719 209.355469 132.613281 C 207.484375 133.214844 205.21875 133.703125 203.578125 134.855469 C 207.25 143.484375 213.097656 152.125 218.503906 159.792969 " fill-opacity="1" fill-rule="nonzero"/><path fill="#ffc8a4" d="M 258.226562 118.308594 C 258.765625 117.367188 259.097656 116.230469 259.109375 115.21875 C 259.757812 115.515625 260.535156 115.605469 261.21875 115.808594 C 263.746094 116.558594 266.246094 117.132812 268.65625 118.242188 C 269.304688 118.539062 269.726562 119.167969 270.117188 119.761719 C 271.394531 121.722656 273.144531 123.992188 271.78125 126.476562 C 271.558594 127.238281 271.269531 127.984375 270.839844 128.652344 C 270.378906 129.375 269.761719 129.984375 269.136719 130.570312 C 267.175781 132.410156 264.15625 134.898438 261.351562 133.695312 C 258.613281 132.519531 257.765625 129.59375 256.632812 127.136719 C 256.148438 126.089844 255.777344 124.933594 255.214844 123.929688 C 254.6875 122.996094 254.363281 121.964844 253.867188 121.003906 C 255.214844 120.707031 256.632812 120.296875 257.550781 119.265625 C 257.800781 118.984375 258.027344 118.660156 258.226562 118.308594 " fill-opacity="1" fill-rule="nonzero"/><path fill="#37474f" d="M 300.285156 138.960938 C 300.621094 141.523438 301.128906 142.980469 303.652344 143.503906 C 303.65625 147.054688 304.082031 150.230469 304.429688 153.722656 C 304.496094 154.183594 304.535156 154.71875 304.203125 155.042969 C 303.957031 155.285156 303.582031 155.324219 303.242188 155.34375 C 300.410156 155.515625 297.578125 155.140625 294.765625 154.757812 C 292.535156 154.453125 290.277344 154.140625 288.183594 153.3125 C 286.074219 152.480469 283.964844 151.105469 281.738281 151.515625 C 281.582031 142.859375 282.652344 134.230469 283.789062 125.648438 C 283.847656 125.210938 283.914062 124.75 284.199219 124.414062 C 284.476562 124.089844 284.910156 123.945312 285.324219 123.832031 C 286.625 123.464844 287.964844 123.234375 289.3125 123.144531 C 287.625 123.265625 289.066406 133.3125 289.476562 134.285156 C 289.722656 134.875 290.023438 135.53125 289.78125 136.117188 C 290.777344 133.703125 292.535156 131.675781 294.148438 129.65625 C 295.691406 127.734375 297.136719 125.945312 298.566406 123.902344 C 298.789062 123.582031 302.21875 124.992188 302.628906 125.210938 C 300.875 129.75 299.628906 133.972656 300.285156 138.960938 " fill-opacity="1" fill-rule="nonzero"/><g clip-path="url(#8e8a30de36)"><g clip-path="url(#bad8a482c2)"><g clip-path="url(#a6bdffa259)"><g clip-path="url(#b66d0dfa21)"><path fill="url(#0a56c61b80)" d="M 242.160156 123.488281 L 264.082031 198.445312 L 341.929688 175.679688 L 320.007812 100.722656 Z M 242.160156 123.488281 " fill-rule="nonzero"/></g></g></g></g><path fill="#ffc8a4" d="M 315.769531 139.585938 C 311.675781 135.273438 308.808594 130.277344 304.285156 126.175781 L 302.945312 128.136719 C 302.613281 129.503906 302.328125 130.878906 302.128906 132.269531 C 301.882812 134.292969 301.820312 136.332031 301.949219 138.367188 C 301.949219 138.378906 301.949219 138.390625 301.949219 138.402344 C 302.503906 139.054688 303.078125 139.6875 303.710938 140.265625 C 306.171875 142.523438 308.769531 144.535156 311.078125 146.972656 C 311.367188 147.277344 311.667969 147.617188 311.703125 148.035156 C 311.738281 148.453125 311.503906 148.835938 311.277344 149.1875 C 308.925781 152.828125 306.769531 156.589844 304.59375 160.332031 C 303.695312 161.878906 303.070312 163.566406 302.070312 165.058594 C 301.8125 165.433594 300.007812 168.105469 299.394531 167.585938 C 298.679688 166.976562 297.964844 166.367188 297.226562 165.777344 C 296.734375 167.917969 297.890625 170.992188 300.429688 170.878906 C 302.410156 170.789062 303.761719 168.636719 305.1875 167.496094 C 307.132812 165.941406 308.941406 164.152344 310.738281 162.429688 C 314.296875 159.023438 318.054688 155.226562 319.878906 150.558594 C 321.652344 146.027344 318.707031 142.679688 315.769531 139.585938 " fill-opacity="1" fill-rule="nonzero"/><path fill="#ffc8a4" d="M 288.761719 161.867188 C 290.242188 162.097656 291.792969 162.359375 293.277344 162.234375 C 294.128906 162.160156 295.035156 162.488281 295.871094 162.671875 C 296.378906 162.785156 296.898438 162.90625 297.421875 162.886719 C 298.394531 162.847656 299.449219 162.472656 300.273438 161.976562 C 300.5 161.84375 300.734375 161.675781 300.796875 161.417969 C 300.863281 161.160156 300.71875 160.882812 300.503906 160.71875 C 300.292969 160.558594 300.023438 160.488281 299.761719 160.441406 C 298.972656 160.289062 298.171875 160.3125 297.375 160.292969 C 296.949219 160.285156 296.101562 160.300781 295.867188 159.84375 C 295.863281 159.839844 297.074219 159.632812 297.210938 159.636719 C 297.644531 159.644531 298.417969 159.835938 298.675781 159.429688 C 298.6875 159.410156 298.703125 159.390625 298.695312 159.371094 C 298.6875 159.347656 298.664062 159.335938 298.640625 159.328125 C 298.171875 159.148438 297.699219 158.964844 297.207031 158.863281 C 296.488281 158.710938 295.839844 158.863281 295.148438 159.066406 C 294.441406 159.269531 293.710938 159.417969 292.980469 159.496094 C 292.269531 159.566406 291.871094 159.28125 291.296875 158.945312 C 290.53125 158.5 289.742188 158.089844 288.964844 157.667969 C 287.445312 156.84375 285.910156 156.035156 284.351562 155.28125 C 283.128906 154.691406 281.886719 154.125 280.773438 153.355469 C 279.792969 152.671875 278.914062 151.832031 277.863281 151.273438 C 278.148438 151.425781 275.242188 156.367188 275.496094 156.917969 C 275.539062 157.011719 275.632812 157.074219 275.722656 157.125 C 276.636719 157.671875 277.519531 158.304688 278.476562 158.773438 C 281.539062 160.289062 285.039062 161.296875 288.410156 161.8125 C 288.527344 161.832031 288.644531 161.847656 288.761719 161.867188 " fill-opacity="1" fill-rule="nonzero"/><g clip-path="url(#c9ce110a2d)"><path fill="#f8b919" d="M 295.804688 111.78125 C 296.128906 111.949219 296.519531 111.714844 296.753906 111.433594 C 297.5 110.546875 297.816406 109.058594 299.320312 109.222656 C 300.21875 109.316406 300.800781 110.320312 300.738281 111.21875 C 300.675781 112.121094 300.144531 112.914062 299.582031 113.621094 C 299.160156 114.152344 298.703125 114.679688 298.503906 115.328125 C 298.386719 115.714844 298.367188 116.128906 298.390625 116.53125 C 298.417969 117.042969 298.507812 117.550781 298.660156 118.039062 C 298.714844 118.21875 298.789062 118.410156 298.949219 118.511719 C 299.289062 118.71875 299.695312 118.386719 299.957031 118.085938 C 301.628906 116.175781 303.792969 114.925781 305.222656 112.742188 C 306.441406 110.890625 307.195312 108.699219 307.152344 106.480469 C 307.136719 105.726562 306.984375 104.945312 306.398438 104.414062 C 307.136719 105 308.066406 104.285156 308.636719 103.785156 C 309.875 102.695312 310.777344 101.414062 310.386719 99.765625 C 309.757812 97.074219 308.25 94.007812 305.230469 93.996094 C 302.707031 93.988281 299.597656 95.261719 298.917969 97.933594 C 295.207031 94.320312 287.070312 100.085938 287.21875 104.691406 C 289.117188 102.132812 294.71875 103.011719 296.175781 105.738281 C 296.917969 107.128906 294.402344 111.042969 295.804688 111.78125 " fill-opacity="1" fill-rule="nonzero"/></g><path fill="#ffffff" d="M 284.914062 187.007812 C 284.949219 186.976562 284.980469 186.941406 285.015625 186.914062 L 286.9375 173.988281 L 286.589844 173.9375 L 284.582031 187.414062 C 284.683594 187.265625 284.796875 187.128906 284.914062 187.007812 " fill-opacity="1" fill-rule="nonzero"/><path fill="#ffffff" d="M 303.34375 140.105469 C 303.339844 140.070312 303.335938 140.03125 303.335938 139.992188 C 303.332031 139.9375 303.332031 139.875 303.335938 139.816406 L 301.863281 138.027344 L 301.589844 138.253906 L 303.328125 140.367188 L 303.335938 140.363281 C 303.332031 140.277344 303.335938 140.191406 303.34375 140.105469 " fill-opacity="1" fill-rule="nonzero"/><g fill="#d94141" fill-opacity="1"><g transform="translate(85.244999, 139.90398)"><g><path d="M 7.425781 0 L 13.363281 0 L 13.363281 -18.742188 L 20.195312 -18.742188 L 20.195312 -23.59375 L 0.5625 -23.59375 L 0.5625 -18.742188 L 7.425781 -18.742188 Z M 7.425781 0 "/></g></g></g><g fill="#d94141" fill-opacity="1"><g transform="translate(106.991959, 139.90398)"><g><path d="M 12.34375 0.527344 C 19.765625 0.527344 24.023438 -4.6875 24.023438 -11.8125 C 24.023438 -18.910156 19.765625 -24.121094 12.34375 -24.121094 C 4.851562 -24.121094 0.660156 -18.910156 0.660156 -11.8125 C 0.660156 -4.6875 4.851562 0.527344 12.34375 0.527344 Z M 12.34375 -4.324219 C 8.019531 -4.324219 6.601562 -7.6875 6.601562 -11.8125 C 6.601562 -15.90625 8.019531 -19.273438 12.34375 -19.273438 C 16.632812 -19.273438 18.085938 -15.90625 18.085938 -11.8125 C 18.085938 -7.6875 16.632812 -4.324219 12.34375 -4.324219 Z M 12.34375 -4.324219 "/></g></g></g><g fill="#d94141" fill-opacity="1"><g transform="translate(132.665902, 139.90398)"><g/></g></g><g fill="#d94141" fill-opacity="1"><g transform="translate(139.265887, 139.90398)"><g><path d="M 1.617188 0 L 12.40625 0 C 18.976562 0 22.605469 -4.191406 22.605469 -11.78125 C 22.605469 -19.371094 18.644531 -23.59375 12.078125 -23.59375 L 1.617188 -23.59375 Z M 7.558594 -4.851562 L 7.558594 -18.742188 L 11.484375 -18.742188 C 15.179688 -18.742188 16.664062 -16.070312 16.664062 -11.78125 C 16.664062 -7.492188 15.179688 -4.851562 11.484375 -4.851562 Z M 7.558594 -4.851562 "/></g></g></g><g fill="#d94141" fill-opacity="1"><g transform="translate(163.520842, 139.90398)"><g><path d="M 12.34375 0.527344 C 19.765625 0.527344 24.023438 -4.6875 24.023438 -11.8125 C 24.023438 -18.910156 19.765625 -24.121094 12.34375 -24.121094 C 4.851562 -24.121094 0.660156 -18.910156 0.660156 -11.8125 C 0.660156 -4.6875 4.851562 0.527344 12.34375 0.527344 Z M 12.34375 -4.324219 C 8.019531 -4.324219 6.601562 -7.6875 6.601562 -11.8125 C 6.601562 -15.90625 8.019531 -19.273438 12.34375 -19.273438 C 16.632812 -19.273438 18.085938 -15.90625 18.085938 -11.8125 C 18.085938 -7.6875 16.632812 -4.324219 12.34375 -4.324219 Z M 12.34375 -4.324219 "/></g></g></g><g fill="#a62d38" fill-opacity="1"><g transform="translate(100.268435, 175.153978)"><g><path d="M 1.617188 0 L 18.050781 0 L 18.050781 -4.851562 L 7.558594 -4.851562 L 7.558594 -23.59375 L 1.617188 -23.59375 Z M 1.617188 0 "/></g></g></g><g fill="#a62d38" fill-opacity="1"><g transform="translate(119.9034, 175.153978)"><g><path d="M 1.648438 0 L 7.589844 0 L 7.589844 -23.59375 L 1.648438 -23.59375 Z M 1.648438 0 "/></g></g></g><g fill="#a62d38" fill-opacity="1"><g transform="translate(130.100377, 175.153978)"><g><path d="M 11.253906 0.527344 C 17.160156 0.527344 20.59375 -2.410156 20.59375 -6.929688 C 20.59375 -11.980469 16.003906 -13.429688 11.550781 -14.652344 C 8.578125 -15.476562 7.09375 -15.9375 7.09375 -17.390625 C 7.09375 -18.710938 8.480469 -19.273438 10.261719 -19.273438 C 12.539062 -19.273438 14.058594 -18.214844 14.320312 -16.433594 L 20.261719 -16.433594 C 20.097656 -21.21875 15.773438 -24.121094 10.261719 -24.121094 C 5.179688 -24.121094 1.15625 -22.109375 1.15625 -16.960938 C 1.15625 -12.605469 4.71875 -10.855469 8.777344 -9.667969 C 12.109375 -8.679688 14.652344 -8.25 14.652344 -6.367188 C 14.652344 -5.179688 13.464844 -4.324219 11.253906 -4.324219 C 8.613281 -4.324219 6.433594 -5.246094 6.433594 -7.753906 L 0.496094 -7.753906 C 0.496094 -2.507812 5.113281 0.527344 11.253906 0.527344 Z M 11.253906 0.527344 "/></g></g></g><g fill="#a62d38" fill-opacity="1"><g transform="translate(152.441332, 175.153978)"><g><path d="M 7.425781 0 L 13.363281 0 L 13.363281 -18.742188 L 20.195312 -18.742188 L 20.195312 -23.59375 L 0.5625 -23.59375 L 0.5625 -18.742188 L 7.425781 -18.742188 Z M 7.425781 0 "/></g></g></g></svg>